<svg xmlns="http://www.w3.org/2000/svg" width="1000" height="1000" viewBox="0 0 1000 1000"><defs><clipPath id="b" clipPathUnits="userSpaceOnUse"><path d="M182.156 480.486h63.466v26.645h-63.466z"/></clipPath><clipPath id="a" clipPathUnits="userSpaceOnUse"><path d="m212.286 513.06 20.835-17.482-17.483-20.834-20.834 17.482Z"/></clipPath></defs><path d="M500.022 52.362C224.29 52.362 0 276.64 0 552.405c0 275.629 224.29 499.957 500.022 499.957 275.64 0 499.978-224.328 499.978-499.957 0-275.765-224.338-500.043-499.978-500.043Zm.03 69.389c237.857 0 430.643 192.782 430.643 430.628 0 237.847-192.786 430.628-430.643 430.628-237.857 0-430.647-192.781-430.647-430.628 0-237.846 192.79-430.628 430.647-430.628z" style="fill:#000;fill-opacity:1;fill-rule:nonzero;stroke:none;stroke-width:2.22217393" transform="translate(0 -52.362)"/><path d="M462.994 533.852H288.232l40.06-62.637h108.572l39.65-62.409H234.289l-39.469 62.41h58.133l-79.164 125.09h325.397l123.595-196.24 44.703 71.058h-38.558l-39.423 62.728h117.586l39.56 62.455h75.02L622.78 281.439ZM313.134 283.76 273.8 346.17l256.931-.092 39.378-62.318H313.133Z" style="fill:#000;stroke:none;stroke-width:2.22217393" transform="translate(0 -52.362)"/><path d="M828.816 632.802v2.23h5.144v10.925h2.55v-10.925h5.144v-2.23zM857.086 632.802l-5.053 7.83-5.144-7.83h-2.231v13.11h2.23v-8.103l-.227-1.411.774 1.32 4.188 6.6h.455l4.188-6.51.592-1.41v9.514h2.276v-13.11zM260.992 734.646c0 7.966-2.777 14.885-8.285 20.438-5.6 5.554-12.428 8.376-20.349 8.376h-33.732c-8.103 0-14.886-2.731-20.304-8.102-5.326-5.372-8.057-12.018-8.057-20.212v-13.383h20.804l3.186 12.382c1.366 5.19 4.871 7.784 10.562 7.784h22.943c2.914 0 5.19-1.093 7.01-3.095 1.73-2.14 2.596-4.871 2.596-8.012v-14.749c0-7.192-3.142-10.925-9.606-10.925H198.9c-7.83 0-14.568-2.731-20.258-8.24-5.508-5.735-8.376-12.563-8.376-20.575v-19.392c0-7.784 2.868-14.52 8.376-20.165 5.69-5.645 12.428-8.376 20.258-8.376h33.459c7.921 0 14.658 2.686 20.121 7.966 5.508 5.372 8.103 12.109 8.103 20.211v12.109h-20.667l-3.096-10.97c-1.639-5.281-5.235-7.83-10.516-7.83h-22.579c-3.004 0-5.326 1.092-7.101 3.232-1.821 2.048-2.64 4.688-2.64 7.966v11.38c0 7.056 3.231 10.606 9.741 10.606h28.634c7.83 0 14.658 2.823 20.167 8.558 5.69 5.69 8.467 12.337 8.467 20.166zM379 685.223c0 7.876-2.913 14.658-8.512 20.257-5.69 5.645-12.565 8.467-20.44 8.467h-37.147v49.527h-23.9v-135.06h61.047c7.875 0 14.75 2.822 20.44 8.375 5.599 5.554 8.513 12.29 8.513 20.075zm-33.64-35.005H312.9v41.88h32.458l6.92-3.142c1.775-2.094 2.64-4.689 2.64-8.012V661.28c0-3.277-.865-5.78-2.64-7.92zM590.918 763.478l-21.942-52.804h-22.67v52.804h-23.945v-135.06h59.771c8.012 0 14.75 2.822 20.304 8.33 5.553 5.645 8.421 12.428 8.421 20.12v23.535c0 6.145-1.73 11.699-5.053 16.57-3.505 4.916-7.875 8.42-13.247 10.651l23.763 55.854zm-13.292-113.255h-31.32v38.601h31.32l6.6-3.004c1.821-2.049 2.64-4.643 2.64-7.92v-16.661c0-3.141-.819-5.736-2.64-7.921zM718.76 650.195h-34.643v113.256h-23.854V650.195h-34.415v-21.759h92.912zM826.99 734.646c0 7.966-2.822 14.885-8.284 20.438-5.69 5.554-12.474 8.376-20.486 8.376h-33.732c-8.012 0-14.75-2.731-20.258-8.102-5.326-5.372-8.103-12.018-8.103-20.212v-13.383h20.85l3.095 12.382c1.457 5.19 5.008 7.784 10.652 7.784h22.944c2.868 0 5.235-1.093 7.056-3.095 1.73-2.14 2.458-4.871 2.458-8.012v-14.749c0-7.192-3.095-10.925-9.514-10.925h-28.77c-7.921 0-14.75-2.731-20.304-8.24-5.553-5.735-8.467-12.563-8.467-20.575v-19.392c0-7.784 2.914-14.52 8.467-20.165 5.554-5.645 12.383-8.376 20.304-8.376h33.322c8.012 0 14.704 2.686 20.167 7.966 5.417 5.372 8.194 12.109 8.194 20.211v12.109h-20.713l-3.187-10.97c-1.638-5.281-5.144-7.83-10.47-7.83h-22.67c-2.914 0-5.372 1.092-7.01 3.232-1.822 2.048-2.641 4.688-2.641 7.966v11.38c0 7.056 3.232 10.606 9.65 10.606h28.68c7.921 0 14.613 2.823 20.167 8.558 5.781 5.69 8.604 12.337 8.604 20.166zM459.863 650.195h-22.944l-7.01 3.141c-1.64 2.14-2.55 4.734-2.55 7.966v69.192c0 3.187.91 5.736 2.55 7.875l7.01 3.369h22.944l6.919-3.369c1.82-2.14 2.731-4.688 2.731-7.875v-69.192c0-3.232-.91-5.826-2.731-7.966zm33.459 84.26c0 8.193-2.777 15.021-8.376 20.62-5.736 5.508-12.383 8.376-20.486 8.376h-32.275c-7.967 0-14.886-2.868-20.395-8.376-5.553-5.599-8.467-12.427-8.467-20.62v-77.66c0-7.647 2.914-14.475 8.467-20.028 5.509-5.6 12.428-8.33 20.395-8.33h32.275c8.103 0 14.75 2.73 20.486 8.239 5.599 5.462 8.376 12.336 8.376 20.12z" style="fill:#000;fill-opacity:1;fill-rule:nonzero;stroke:none;stroke-width:2.22217393" transform="translate(0 -52.362)"/></svg>